# Blender 5.1.1
# www.blender.org
mtllib PortalGate.mtl
o Cube.001
v -1.000000 1.000000 -4.000000
v -1.000000 1.000001 4.000000
v -1.000000 -1.000000 -6.000000
v -1.000000 1.000000 -6.000000
v -1.000000 -0.999999 4.000000
v -1.000000 -1.000000 -4.000000
v 1.000000 -1.000000 -6.000000
v 1.000000 1.000000 -6.000000
v -1.000000 -0.999999 6.000000
v -1.000000 1.000001 6.000000
v 1.000000 1.000001 6.000000
v 1.000000 -0.999999 6.000000
v 1.000000 -1.000000 -4.000000
v 1.000000 -0.999999 4.000000
v 1.000000 1.000001 4.000000
v 1.000000 1.000000 -4.000000
v -1.000000 16.000000 5.999999
v -1.000000 16.000000 3.999999
v -1.000000 16.000000 -6.000001
v 1.000000 16.000000 -6.000001
v 1.000000 16.000000 5.999999
v 1.000000 16.000000 3.999999
v -1.000000 16.000000 -4.000001
v 1.000000 16.000000 -4.000001
v 1.000000 14.250001 5.999999
v -1.000000 14.250001 5.999999
v -1.000000 14.250001 3.999999
v 1.000000 14.250001 3.999999
v -1.000000 14.250000 -4.000001
v -1.000000 14.250000 -6.000001
v 1.000000 14.250000 -4.000001
v 1.000000 14.250000 -6.000001
vn 1.0000 -0.0000 -0.0000
vn -0.0000 -0.0000 -1.0000
vn -0.0000 -1.0000 -0.0000
vn -0.0000 -0.0000 1.0000
vn -1.0000 -0.0000 -0.0000
vn -0.0000 1.0000 -0.0000
vt 0.625000 0.666667
vt 0.625000 0.750000
vt 0.375000 0.750000
vt 0.375000 0.666667
vt 0.375000 0.250000
vt 0.625000 0.250000
vt 0.625000 0.500000
vt 0.375000 0.500000
vt 0.125000 0.750000
vt 0.125000 0.666667
vt 0.375000 0.583333
vt 0.125000 0.583333
vt 0.125000 0.500000
vt 0.625000 1.000000
vt 0.375000 0.166667
vt 0.625000 0.166667
vt 0.375000 1.000000
vt 0.375000 0.083333
vt 0.625000 0.083333
vt 0.875000 0.583333
vt 0.875000 0.666667
vt 0.625000 0.583333
vt 0.375000 0.000000
vt 0.625000 0.000000
vt 0.875000 0.750000
vt 0.875000 0.500000
s 1
f 15/1/1 11/2/1 12/3/1 14/4/1
f 3/5/2 4/6/2 8/7/2 7/8/2
f 14/4/3 12/3/3 9/9/3 5/10/3
f 7/8/3 13/11/3 6/12/3 3/13/3
f 26/14/4 25/2/4 21/2/4 17/14/4
f 3/5/5 6/15/5 1/16/5 4/6/5
f 12/3/4 11/2/4 10/14/4 9/17/4
f 30/6/5 29/16/5 23/16/5 19/6/5
f 6/15/5 5/18/5 2/19/5 1/16/5
f 1/20/6 2/21/6 15/1/6 16/22/6
f 5/18/5 9/23/5 10/24/5 2/19/5
f 13/11/3 14/4/3 5/10/3 6/12/3
f 8/7/1 16/22/1 13/11/1 7/8/1
f 16/22/1 15/1/1 14/4/1 13/11/1
f 18/21/6 17/25/6 21/2/6 22/1/6
f 19/26/6 23/20/6 24/22/6 20/7/6
f 27/19/5 26/24/5 17/24/5 18/19/5
f 29/20/4 31/22/4 24/22/4 23/20/4
f 25/2/1 28/1/1 22/1/1 21/2/1
f 32/7/2 30/6/2 19/6/2 20/7/2
f 28/1/2 27/21/2 18/21/2 22/1/2
f 31/22/1 32/7/1 20/7/1 24/22/1
f 15/1/2 2/21/2 27/21/2 28/1/2
f 11/2/1 15/1/1 28/1/1 25/2/1
f 2/19/5 10/24/5 26/24/5 27/19/5
f 10/14/4 11/2/4 25/2/4 26/14/4
f 16/22/1 8/7/1 32/7/1 31/22/1
f 8/7/2 4/6/2 30/6/2 32/7/2
f 1/20/4 16/22/4 31/22/4 29/20/4
f 4/6/5 1/16/5 29/16/5 30/6/5
f 28/1/3 27/21/3 29/20/3 31/22/3
f 24/22/1 22/1/1 28/1/1 31/22/1
f 22/1/3 18/21/3 23/20/3 24/22/3
f 18/21/5 23/20/5 29/20/5 27/21/5
